<?xml version="1.0" encoding="UTF-8"?>
<svg id="_图层_2" data-name="图层 2" xmlns="http://www.w3.org/2000/svg" viewBox="0 0 1043.5 276.6">
  <defs>
    <style>
      .cls-1 {
        fill-rule: evenodd;
      }

      .cls-1, .cls-2 {
        fill: #231815;
      }
    </style>
  </defs>
  <g id="_" data-name="ͼ">
    <path class="cls-1" d="M926.07,148.53s-11.87,4.98-14.13,4.73c0,0-8.13-1.12-3.47,5.6,0,0,1.73,10.09,22.67,11.33,0,0,16.27,2.62,22.53-5.48v-15.82s1.87-8.1-12.8-6.6c0,0-7.47,.75-11.33,4.36l-2,1.12-2.13,.5,.67,.25h0Zm9.75-107.8s6.83-8.2,11.22,.91c0,0-3.9,10.48-6.34,10.48l-8.78-.46-.49-4.56,1.46-5.93,2.93-.46h0Zm-12.69,19.14l1.46,10.94s2.44,8.2,9.27,1.37l1.95-6.38s5.86-10.94-1.46-10.03c.49-.91-9.92-2.89-11.22-5.93l.49,5.47-.49,4.56h0Zm-12.69-37.38s-.98-11.4,8.3,.46c0,0,4.39,12.31,5.86,14.59,0,0,1.95,10.48,5.37,1.37,0,0,1.95-6.84,4.88-6.84,0,0,.49-10.94-2.44-13.22,0,0,0-5.93,4.39-1.37,0,0,7.81,5.47,12.69-10.94,0,0-.98-11.4,6.34-4.1,0,0,6.34,8.66-5.37,17.78,0,0-1.95,10.03,.98,12.76,0,0,5.37,5.01,.49,15.5,0,0-4.39,11.4-.49,15.95,0,0,5.37,2.74,6.34,6.38,0,0,2.44,5.47-4.88,2.73l-2.93-6.38s-5.86-7.75-7.81,1.82c0,0-7.81,9.12-14.15,10.94,0,0-3.9,2.28-3.42,5.47l-1.46,4.56s4.39,2.28,12.69-1.37l26.84-8.21s9.76-4.56,5.86-12.76c0,0-10.74-4.56-1.95-8.66,0,0,10.74-1.82,8.78-7.29,0,0,1.46-6.84-12.2-5.01,0,0-3.42-4.1,3.42-4.1l9.27,.46s3.9-5.47,3.9-10.48c0,0,2.44-3.65-4.88-3.65l-13.18-.46s-5.37-3.65,5.37-3.19l8.3-.46s4.88-7.29,17.08-.46l5.86,5.93s10.74,4.56-2.93,10.03c0,0-2.93-.91-6.83,14.59l-3.9,7.29s-8.3,10.03,4.39,10.94c0,0,6.83,.91,11.22-2.73,0,0,11.22-9.57,18.54-2.74,0,0,25.86,20.97,5.37,28.26,0,0-17.08-4.1-21.47-2.28,0,0-18.06,2.28-19.52,5.01,0,0,5.86-13.67-12.69-11.85,0,0-26.84,1.37-31.72,5.47,0,0-20.5,1.37-20.5,10.03,0,0-1.46,8.66,12.2,5.47,0,0,24.4-5.47,28.3-8.66l5.86-2.28s7.32,0,8.3,2.28c.98,2.28,18.06,4.1-1.46,15.5,0,0-8.78,1.82,.49,9.57l16.1,.46s10.25-8.66,15.13-2.74l9.76,6.38,3.9,5.47v5.01l-46.36,.46s8.3,17.32-.98,27.81c0,0-6.34,20.51-27.33,17.78,0,0-19.03-15.5-29.77-11.4,0,0-26.84-12.76-9.76-24.16,0,0,13.66-12.76,38.07-13.67,0,0,8.78-2.28,8.78-11.4l2.93-9.12s-8.3-8.66-16.1-1.37l-8.78,6.38-14.15,.91s-6.83-3.65-2.93-12.31c0,0,7.81-6.84-4.39-7.29,0,0-10.25,1.37-.98-5.01,0,0,9.76-.91,12.2-4.56,0,0,6.83-6.38-1.95-9.57,0,0-5.86,.91,0-14.59,0,0,3.9-15.95,.98-21.42l-1.95-10.03-1.95-2.28-.49-6.84-1.46-4.56h0Zm-18.06,22.34v4.56l.98,2.28c0,3.65,3.42,8.2,3.42,8.2l.98,26.89,6.83-1.82V43.01l-5.37-3.19c-7.32-4.56-6.83,5.01-6.83,5.01h0Zm-12.69,31.91c.98,0,12.2,25.07-.98,40.11,0,0-11.22,21.42,7.81,20.97,0,0,8.78-5.93,11.22-8.66,0,0,1.46-35.56-10.25-51.51l-5.86-4.56s-2.93,3.65-1.95,3.65Z"/>
    <path class="cls-1" d="M728.77,88.49s29.75-3.06,35.91-6.55l3.59-43.21s-1.03-7.42,9.75-2.62c0,0,11.8,10.04,14.88,10.47l1.03,6.55-4.62,1.75v15.71s3.59,5.67,10.26,1.31c0,0,20.52-10.04,21.03-12.22,0,0,1.54,17.89-4.1,26.62,0,0-14.88,6.98-28.21,10.47,0,0-16.93,.87-3.08,20.08,0,0,21.54,25.31,53.35,27.06,0,0,18.47,.87,21.03,.44,0,0-1.03,12.22-41.55,16.58,0,0-18.47,3.06-32.32-24l-9.75-10.47s-4.1-10.04-11.28,6.98c0,0-17.95,24-27.19,26.19,0,0-17.95,13.09-33.85-9.6,0,0-8.72-18.33,2.56-15.71,0,0,15.9,13.09,31.29,2.18,0,0,8.72-6.11,17.44-16.58v-12.22l-5.64,1.75s-6.67,.44-7.69-2.62l-8.21-12.66-4.62-5.67Z"/>
    <path class="cls-1" d="M382.53,104.05s-16.84,7.13-5.77,16.63c0,0,9.14,1.9,14.43-3.33,0,0,11.06-1.9,12.03,.48,0,0,5.77-13.78-5.77-15.68l-7.7,.48-7.22,1.43h0Zm-20.2-38.02s1.44-5.23,1.44-1.9c0-3.33,5.29-7.13,5.29-7.13,7.7-8.55,5.29,8.55,5.29,8.55,0,8.08,5.77,7.13,5.77,7.13l10.58-3.33c14.43,7.13-2.89,9.98-2.89,9.98-6.73-.48-15.88,8.55-15.88,8.55-5.77,14.26,7.7,10.46,7.7,10.46,.96-3.33,20.2-6.18,20.2-6.18,8.66-.48,4.33-9.98,4.33-9.98-3.37-9.51-1.92-16.16-1.92-16.16,1.44-18.54-8.66-16.16-8.66-16.16-13.47,.48,2.89-5.7,2.89-5.7,5.29-4.28,12.51-14.73,12.51-14.73,1.92,13.31,20.69,21.39,20.69,21.39l-6.73,19.01c-2.41,20.91,11.55,16.16,11.55,16.16,4.81-7.13,16.84-5.23,16.84-5.23,14.91-3.8,10.1-19.96,10.1-19.96,0-6.18-2.89-18.54-2.89-18.54-4.81-5.7-4.33-11.88-4.33-11.88l8.18-10.93c3.37,9.51,14.43,15.21,14.43,15.21,6.25,1.43,4.33,10.46,4.33,10.46l-1.92,16.16c.96,11.41,3.37,11.41,3.37,11.41l5.77-1.9c6.25-9.51,10.58,3.33,10.58,3.33-1.92,12.36-17.8,11.41-17.8,11.41l-1.44,21.86c-.96,11.88,0,50.38,0,50.38,0,4.28-3.85,18.06-3.85,18.06l-12.03,10.93c-11.06,6.18-9.62-9.98-9.62-9.98-3.37-12.36-18.76-13.31-18.76-13.31-14.43-8.55,1.44-9.51,1.44-9.51,3.85,3.8,19.24,4.75,19.24,4.75,10.1-3.8,5.77-11.41,5.77-11.41l-.48-19.96c-.48-14.26-11.06,.95-11.06,.95-13.47,12.36-26.94,16.63-26.94,16.63-12.99-1.9-4.33-7.6-4.33-7.6l33.67-31.84c1.92-14.26-9.14-9.51-9.14-9.51-7.22,1.9-15.39-4.75-15.39-4.75-3.85-5.7-6.25,1.43-6.25,1.43,.96,17.59-7.22,36.12-7.22,36.12-12.03,3.8-11.06-1.43-11.06-1.43l-3.85,.48c-7.7-1.9,0,6.65,0,6.65l19.72,14.73c5.77,4.28,2.89,16.63,2.89,16.63-7.22,13.31-12.51,2.38-12.51,2.38-5.29-4.28-12.51-22.81-12.51-22.81-6.73-18.54-13.95-16.63-13.95-16.63-10.58,5.23-.48,17.11-.48,17.11,7.22,1.9,1.92,11.41,1.92,11.41-5.77-.95-16.36,9.98-16.36,9.98-16.84,11.88-19.72,.95-19.72,.95,13.47-3.8,14.43-12.36,14.43-12.36,11.55-8.55,2.41-12.83,2.41-12.83-4.33-1.43-3.85-8.55-3.85-8.55,1.92-5.7-6.25-46.58-6.25-46.58-8.18-14.26,6.73-21.86,6.73-21.86Z"/>
    <path class="cls-1" d="M576.76,28.47s1.67-14.9,10.85,3.4c0,0,1.25,21.28,15.02,16.6,0,0,2.09-2.98,14.6-2.55l29.2-8.94s12.52-3.83,18.36,7.66c0,0-11.26,5.53-11.26,8.51,0,0-6.67,7.24,5.01,8.51,0,0,18.77,0,22.11,14.47,0,0,2.5,21.28-10.85,11.92,0,0-8.76-7.24-15.85-3.83,0,0,4.17-8.09,1.25-11.49,0,0-7.93-17.02-27.12-14.47,0,0-17.94,2.98,.83,20.43l11.68,.85s2.5,8.94,2.5,14.04c0,0,0,15.75,9.59,13.62,0,0,8.34,0,8.34-2.55l6.68,8.94s-12.52,4.26-22.94,5.11l-.42,22.98,11.26,.43s13.77-4.68,16.27,.43c0,0-3.75,19.58-10.85,23.41,0,0-15.85-10.64-44.64-3.4,0,0-9.59,2.13-10.85,6.38,0,0-14.6-1.7-16.69-20.43l35.04-3.83,.42-13.62s-2.92-11.49-9.18-7.66c0,0-18.77-5.11-12.52-11.49,0,0,15.02-.85,18.77-2.55,0,0,4.17-.43,3.75-8.09,0,0,.42-17.88-1.67-18.3,0,0-5.01-16.17-9.18,.43,0,0-10.43,18.73-17.1,20.85,0,0-7.09,5.53-1.25-8.51l10.85-23.83s4.59-11.92-8.76-16.17c0,0-24.61-4.68-21.69,25.11,0,0,4.59,10.21,10.43,8.09,0,0-.42,5.96-2.92,9.36,0,0-7.51,14.04-7.51,17.02,0,0-3.34,13.62,6.26,4.26l5.01-9.79v12.34s-21.28,36.6-21.69,47.24c0,0-6.67-5.11-8.76-4.68,0,0-1.25-16.6-5.01-18.3,0,0-1.67-2.98,2.5-3.83,0,0,13.35-11.07,3.34-16.17l-6.26-.85s-7.51-.43-3.75-6.38l2.09-7.24s11.26-10.21,12.93-15.75c0,0,6.67-7.66-2.92-14.47l-6.26-6.38s-7.51-6.38,2.5-11.92c0,0,16.27-18.73,17.1-21.71,.83-2.98,0,2.55,0,2.55l2.5-8.51,.83-3.4v-3.83Z"/>
    <path class="cls-1" d="M69.75,83.19s-22.85,9.09-1.04,19.13c0,0,10.9-3.35,9.87,5.26l-1.56,11.48s-.52,11.48-16.62,14.83c0,0-10.38,1.91-8.31,11,0,0-8.83,19.61,8.31,12.43,0,0,14.54-13.39,40.5-20.09,0,0,29.6-10.52,34.27-9.56,0,0,0-14.83-3.63-16.26l-10.38,2.87s-20.25,10.04-21.81-6.22c0,0-3.63-27.74,18.69-21.52l8.31,.48-4.67-14.83s-6.23-5.26-18.69,0l-15.06,5.74-11.94,3.35-6.23,1.91h0ZM1.73,75.53v35.39s14.02,23.43,2.08,44.48l.52,16.74s14.02,1.91,15.58-3.35c0,0,8.31-38.26,15.06-44v-14.83l-4.15,.96s-7.27,21.04-16.1,7.17c0,0-3.63-12.43,4.67-22,0,0,4.67-6.22-.52-11.48l-9.87-6.7-7.27-2.39h0ZM24.06,13.36l4.15-4.3,3.63,2.87c0,5.26,6.23,22,6.23,22,1.04,10.04,5.71,17.7,5.71,17.7l2.6,5.26c-1.56,13.39-9.35,6.7-9.35,6.7-1.56-2.39-15.58-25.82-15.58-25.82-7.79-11.48,2.6-24.39,2.6-24.39Z"/>
    <path class="cls-1" d="M264.59,96.95s14.92-6.8,20.57,4.54c0,0,.51,22.68-12.34,31.75,0,0-5.66,4.08-9.26,3.63v-32.65l1.03-7.26h0Zm-70.98,24.94s8.74-11.79,17.49-1.81v10.43h11.32s-.51-14.97,1.54-21.77c0,0,14.92-6.35,17.49-1.81l1.54,19.5-1.54,9.52s-6.69,8.16-26.75,10.43c0,0-12.34,1.36-16.46-12.25l-2.06-4.99-2.57-7.26h0Zm30.35-38.55s9.77-34.02,22.63-13.61l-2.06,19.96-1.54,3.63-16.97,3.63-2.57-3.63v-4.99l.51-4.99h0Zm-42.69-23.58s4.63,14.51,11.83,17.23c0,0,13.89-5.9,14.92,4.08v22.22s-19.55,6.8-22.12,6.8c0,0-10.29,.91-14.4-1.81,0,0-4.63,8.62,4.11,23.13l24.69,36.74s7.2,11.34,14.4-2.72c0,0,0-14.06,28.8-12.25,0,0,25.2-2.27,26.75,3.17,0,0,6.69,6.8,18-6.8,0,0,16.46-24.94,16.46-28.12l12.34-26.76-22.63-23.13s-12.34,9.52-28.29,10.88l-2.06-18.59,2.06-7.26s28.29-.91,22.63-14.06l-14.92-6.8s-17.49,10.43-41.66,16.33c0,0-30.35,5.44-32.92,4.54l-9.77,1.81-8.23,1.36Z"/>
    <path class="cls-1" d="M8.11,244.93v23.25c-.2,5.1-2.8,7.9-7.81,8.41l-.31-1.07c3.17-.1,4.7-2.4,4.59-6.88v-23.71h3.52Zm8.43,26.62v-26.62h3.52v26.62h-3.52Zm22.66-27.23l11.79,27.23h-4.13c-.51-1.02-.97-2.14-1.38-3.37-1.22-3.05-2.14-5.4-2.76-7.04h-9.95c-1.43,3.47-2.7,6.94-3.83,10.4h-2.91l12.25-27.23h.91Zm2.91,15.14l-4.29-10.09-4.28,10.09h8.58Zm37.66-14.53v26.62h-1.22c-.21-.1-.56-.46-1.07-1.07-.31-.31-.61-.71-.92-1.23l-17-18.66h-.3v20.96h-2.15v-26.62h1.53l18.52,20.19h.46v-20.19h2.14Zm32.46,4.59h-.46c-2.35-2.34-5.31-3.57-8.88-3.67-7.35,.41-11.12,4.49-11.33,12.24,.1,8.26,4.03,12.45,11.79,12.54,2.45,.1,4.49-.35,6.12-1.38v-9.94h3.37v11.01c-3.37,1.02-6.89,1.53-10.56,1.53-9.5-.2-14.34-4.75-14.55-13.62,.31-8.87,5.41-13.51,15.31-13.92,4.08,.1,7.45,.87,10.1,2.3-.51,1.02-.82,1.98-.92,2.9h0Zm11.34,15.14l4.44-6.42c-.61-.82-1.38-2.04-2.29-3.67-1.03-1.63-1.79-2.9-2.3-3.82l-3.83-5.81h4.13c.31,.61,.76,1.43,1.38,2.45,.31,.4,.56,.71,.76,.91l4.13,7.04c.51-.92,1.43-2.35,2.76-4.29,1.73-2.65,3.01-4.69,3.83-6.12h2.91c-.2,.1-.41,.25-.61,.46-.1,.2-.15,.31-.15,.31l-5.97,8.26-1.84,2.9,9.03,14.69h-4.28c-2.14-3.98-4.44-7.9-6.89-11.78-2.45,3.88-4.79,7.81-7.04,11.78h-2.91c1.94-2.65,3.52-4.95,4.75-6.89h0Zm23.12,6.89v-26.62h3.52v26.62h-3.52Zm35.64-26.62v14.99c-.31,7.24,2.55,10.7,8.57,10.4,5.61,.1,8.42-3.52,8.42-10.86v-14.53h2.3v15.6c-.21,7.34-4.03,11.12-11.48,11.32-3.78,0-6.64-.82-8.58-2.45-1.93-1.63-2.85-4.59-2.75-8.88v-15.6h3.52Zm51.59,0v26.62h-1.22c-.21-.1-.56-.46-1.07-1.07-.31-.31-.61-.71-.92-1.23l-17-18.66h-.3v20.96h-2.15v-26.62h1.53l18.52,20.19h.46v-20.19h2.14Zm9.2,26.62v-26.62h3.52v26.62h-3.52Zm25.11-8.87l4.13-10.56,2.3-6.57,.31-.61h2.76c-4.08,8.87-7.86,17.75-11.33,26.62h-1.53c-2.76-5.61-5.46-11.47-8.11-17.59-2.15-5.1-3.42-8.11-3.83-9.03h3.83c.41,1.22,.86,2.45,1.38,3.67l2.75,6.89,4.75,11.93h.31c.31-.71,.61-1.38,.91-1.99,.52-.91,.97-1.83,1.38-2.75h0Zm18.38-15.91v9.79h6.12c.41,.1,.97,.1,1.69,0,.71-.1,1.33-.15,1.84-.15,0,.2-.05,.35-.15,.46-.1,.2-.1,.36,0,.46-.1,.21-.1,.41,0,.61,.1,.2,.15,.36,.15,.46-.51,.1-1.12,.1-1.84,0-.71-.1-1.27-.15-1.69-.15h-6.12v11.47c.82,.1,1.99,.1,3.52,0,1.53-.1,2.76-.16,3.67-.16,1.12,0,2.14-.05,3.06-.15,.2,0,.36-.05,.46-.16,0,.21-.05,.41-.15,.61-.1,.2-.1,.36,0,.46-.1,.21-.1,.41,0,.61,.1,.31,.15,.51,.15,.61h-14.08v-26.62h13.93c-.2,.4-.25,.76-.16,1.07-.1,.4-.05,.82,.16,1.22-.61-.1-1.43-.2-2.45-.3-.41,0-.76-.05-1.07-.16h-7.04Zm21.44-.46v10.86s.05,.05,.16,.15c2.04,0,3.67-.15,4.9-.46,3.16-.71,4.79-2.55,4.9-5.51-.1-2.85-1.53-4.54-4.29-5.05h-5.66Zm-3.52,25.24v-26.62h8.27c5.81,0,8.73,1.99,8.73,5.97-.21,3.97-2.86,6.42-7.96,7.34l7.96,10.25,1.99,2.14,.77,.92h-4.6c-.91-1.02-1.73-2.14-2.45-3.37l-4.59-5.97-3.21-3.67h-1.38v13h-3.52Zm24.5-5.2h.46c1.53,2.86,3.63,4.24,6.28,4.13,3.37-.2,5.21-2.14,5.51-5.82,0-2.24-1.89-4.08-5.66-5.5-4.39-1.74-6.58-4.18-6.58-7.34,.2-4.69,3.12-7.19,8.73-7.5,2.25,.1,4.08,.71,5.51,1.83-.51,1.12-.87,2.19-1.07,3.22h-.31c-1.02-2.15-2.65-3.26-4.9-3.37-3.17,.31-4.8,1.83-4.9,4.59,0,2.34,1.89,4.28,5.66,5.82,4.39,1.73,6.58,3.98,6.58,6.73-.31,5.61-3.52,8.52-9.65,8.72-2.96-.2-5.05-.87-6.28-1.99,.21-1.02,.41-2.19,.61-3.52h0Zm22.51,5.2v-26.62h3.52v26.62h-3.52Zm21.74-24.78v24.78h-3.52v-24.78c-3.57,0-6.43,.16-8.58,.46-.1-.1-.1-.3,0-.61,.1-.21,.16-.41,.16-.61,0-.1-.05-.25-.16-.46-.1-.21-.1-.41,0-.61h20.21c0,.2-.05,.4-.15,.61-.1,.2-.1,.35,0,.46-.1,.2-.1,.4,0,.61,.1,.31,.15,.51,.15,.61-2.04-.3-4.75-.46-8.11-.46h0Zm24.34,12.85v11.93h-3.36v-11.17l-9.65-15.45h4.44c3.27,6.22,5.72,10.55,7.35,13,.82-.92,3.21-5.05,7.19-12.39,.1-.31,.21-.52,.31-.61h3.06c-.1,.2-.31,.46-.61,.76-1.02,1.43-1.73,2.45-2.14,3.06l-4.28,7.04c-.61,.82-1.33,1.99-2.14,3.52-.1,.2-.16,.31-.16,.31h0Zm47.58-1.68c.1-3.67-.71-6.53-2.45-8.56-2.14-2.45-4.85-3.73-8.11-3.82-7.14,.4-10.82,4.79-11.02,13.15,.2,7.65,3.78,11.68,10.71,12.09,6.64-.41,10.26-4.69,10.87-12.85h0Zm-11.02,13.92c-9.18-.2-13.98-4.75-14.39-13.62,.51-8.67,5.3-13.31,14.39-13.92,9.49,.51,14.44,4.95,14.85,13.31-.51,9.08-5.46,13.82-14.85,14.23h0Zm21.74-.31v-26.62h13.93c-.2,.4-.25,.76-.16,1.07-.1,.4-.05,.82,.16,1.22-.61-.1-1.43-.2-2.45-.3-.41,0-.76-.05-1.07-.16h-7.04v9.79h6.12c.41,.1,.97,.1,1.69,0,.71-.1,1.33-.15,1.84-.15,0,.2-.05,.35-.15,.46-.1,.2-.1,.36,0,.46-.1,.21-.1,.41,0,.61,.1,.2,.15,.36,.15,.46-.51,.1-1.12,.1-1.84,0-.71-.1-1.27-.15-1.69-.15h-6.12v13.31h-3.37Zm40.85,0v-26.62h13.93c-.2,.4-.25,.76-.16,1.07-.1,.4-.05,.82,.16,1.22-.61-.1-1.43-.2-2.45-.3-.41,0-.76-.05-1.07-.16h-7.04v9.79h6.12c.41,.1,.97,.1,1.69,0,.71-.1,1.33-.15,1.84-.15,0,.2-.05,.35-.15,.46-.1,.2-.1,.36,0,.46-.1,.21-.1,.41,0,.61,.1,.2,.15,.36,.15,.46-.51,.1-1.12,.1-1.84,0-.71-.1-1.27-.15-1.69-.15h-6.12v13.31h-3.37Zm21.44,0v-26.62h3.52v26.62h-3.52Zm35.52-26.62v26.62h-1.22c-.21-.1-.56-.46-1.07-1.07-.31-.31-.61-.71-.92-1.23l-17-18.66h-.3v20.96h-2.15v-26.62h1.53l18.52,20.19h.46v-20.19h2.14Zm19.29-.61l11.79,27.23h-4.13c-.51-1.02-.97-2.14-1.38-3.37-1.22-3.05-2.14-5.4-2.76-7.04h-9.95c-1.43,3.47-2.7,6.94-3.83,10.4h-2.91l12.25-27.23h.91Zm2.91,15.14l-4.29-10.09-4.28,10.09h8.58Zm37.66-14.53v26.62h-1.22c-.21-.1-.56-.46-1.07-1.07-.31-.31-.61-.71-.92-1.23l-17-18.66h-.3v20.96h-2.15v-26.62h1.53l18.52,20.19h.46v-20.19h2.14Zm29.71,22.49l-.31,2.45c-2.14,1.23-5,1.89-8.57,1.99-8.88-.2-13.47-4.8-13.78-13.77,.41-8.56,5.31-13.15,14.7-13.77,2.97,0,5.77,.61,8.42,1.83-.41,1.02-.66,1.99-.76,2.91l-.31,.15c-1.93-2.14-4.43-3.26-7.5-3.37-6.84,.41-10.41,4.54-10.72,12.39,.31,7.85,3.78,11.98,10.41,12.39,2.86,0,5.66-1.07,8.42-3.21h0Zm10.42-20.65v9.79h6.12c.41,.1,.97,.1,1.69,0,.71-.1,1.33-.15,1.84-.15,0,.2-.05,.35-.15,.46-.1,.2-.1,.36,0,.46-.1,.21-.1,.41,0,.61,.1,.2,.15,.36,.15,.46-.51,.1-1.12,.1-1.84,0-.71-.1-1.27-.15-1.69-.15h-6.12v11.47c.82,.1,1.99,.1,3.52,0,1.53-.1,2.76-.16,3.67-.16,1.12,0,2.14-.05,3.06-.15,.2,0,.36-.05,.46-.16,0,.21-.05,.41-.15,.61s-.1,.36,0,.46c-.1,.21-.1,.41,0,.61,.1,.31,.15,.51,.15,.61h-14.08v-26.62h13.93c-.2,.4-.25,.76-.16,1.07-.1,.4-.05,.82,.16,1.22-.61-.1-1.43-.2-2.45-.3-.41,0-.76-.05-1.07-.16h-7.04Zm47.73-2.45l11.79,27.23h-4.13c-.51-1.02-.97-2.14-1.38-3.37-1.22-3.05-2.14-5.4-2.76-7.04h-9.95c-1.43,3.47-2.7,6.94-3.83,10.4h-2.91l12.25-27.23h.91Zm2.91,15.14l-4.29-10.09-4.28,10.09h8.58Zm37.66-14.53v26.62h-1.22c-.21-.1-.56-.46-1.07-1.07-.31-.31-.61-.71-.92-1.23l-17-18.66h-.3v20.96h-2.15v-26.62h1.53l18.52,20.19h.46v-20.19h2.14Zm12.87,1.53v23.25c5.41,.61,9.24,.31,11.48-.92,3.67-1.74,5.56-5.46,5.66-11.17,.31-7.85-3.78-11.62-12.25-11.32-.51,0-1.33,.05-2.45,.15h-2.45Zm-3.37,25.09v-26.62h10.26c4.59-.2,7.91,.56,9.95,2.29,2.65,2.35,4.03,5.61,4.13,9.79,0,4.89-1.63,8.77-4.9,11.63-2.45,1.94-6.38,2.9-11.79,2.9h-7.66Zm54.63-24.78v9.79h6.12c.41,.1,.97,.1,1.69,0,.71-.1,1.33-.15,1.84-.15,0,.2-.05,.35-.15,.46-.1,.2-.1,.36,0,.46-.1,.21-.1,.41,0,.61,.1,.2,.15,.36,.15,.46-.51,.1-1.12,.1-1.84,0-.71-.1-1.27-.15-1.69-.15h-6.12v11.47c.82,.1,1.99,.1,3.52,0,1.53-.1,2.76-.16,3.67-.16,1.12,0,2.14-.05,3.06-.15,.2,0,.36-.05,.46-.16,0,.21-.05,.41-.15,.61-.1,.2-.1,.36,0,.46-.1,.21-.1,.41,0,.61,.1,.31,.15,.51,.15,.61h-14.08v-26.62h13.93c-.2,.4-.25,.76-.16,1.07-.1,.4-.05,.82,.16,1.22-.61-.1-1.43-.2-2.45-.3-.41,0-.76-.05-1.07-.16h-7.04Zm38.58,20.65l-.31,2.45c-2.14,1.23-5,1.89-8.57,1.99-8.88-.2-13.47-4.8-13.78-13.77,.41-8.56,5.31-13.15,14.7-13.77,2.97,0,5.77,.61,8.42,1.83-.4,1.02-.66,1.99-.76,2.91l-.31,.15c-1.93-2.14-4.44-3.26-7.5-3.37-6.84,.41-10.41,4.54-10.72,12.39,.31,7.85,3.78,11.98,10.41,12.39,2.86,0,5.66-1.07,8.42-3.21h0Zm30.62-9.48c.1-3.67-.71-6.53-2.45-8.56-2.14-2.45-4.85-3.73-8.11-3.82-7.14,.4-10.82,4.79-11.02,13.15,.2,7.65,3.78,11.68,10.71,12.09,6.64-.41,10.26-4.69,10.87-12.85h0Zm-11.02,13.92c-9.18-.2-13.98-4.75-14.39-13.62,.51-8.67,5.3-13.31,14.39-13.92,9.49,.51,14.44,4.95,14.85,13.31-.51,9.08-5.46,13.82-14.85,14.23h0Zm44.86-26.92v26.62h-1.22c-.21-.1-.56-.46-1.07-1.07-.31-.31-.61-.71-.92-1.23l-17-18.66h-.3v20.96h-2.15v-26.62h1.53l18.52,20.19h.46v-20.19h2.14Zm32.61,13c.1-3.67-.71-6.53-2.45-8.56-2.14-2.45-4.85-3.73-8.11-3.82-7.14,.4-10.82,4.79-11.02,13.15,.2,7.65,3.78,11.68,10.71,12.09,6.64-.41,10.26-4.69,10.87-12.85h0Zm-11.02,13.92c-9.18-.2-13.98-4.75-14.39-13.62,.51-8.67,5.3-13.31,14.39-13.92,9.49,.51,14.44,4.95,14.85,13.31-.51,9.08-5.46,13.82-14.85,14.23h0Zm47.16-26.92h.76c1.33,12.85,2.4,21.72,3.21,26.62h-3.67c-.31-2.34-.56-4.69-.77-7.04-.61-6.83-1.02-11.17-1.22-13-5,8.77-8.42,15.34-10.25,19.73h-.46l-2.14-4.44c-1.12-2.04-2.76-5.1-4.9-9.18-1.43-2.65-2.45-4.69-3.06-6.12-.2,.91-.4,2.29-.61,4.12-1.03,8.06-1.48,13.36-1.38,15.91h-2.76c1.22-7.96,2.5-16.83,3.83-26.62h.91c.1,.31,.25,.71,.46,1.22,4.39,8.26,7.96,14.69,10.71,19.27,.51-.91,1.28-2.34,2.3-4.28,2.04-3.88,5.05-9.28,9.03-16.21h0Zm11.18,26.62v-26.62h3.52v26.62h-3.52Zm33.07-4.13l-.31,2.45c-2.14,1.23-5,1.89-8.57,1.99-8.88-.2-13.48-4.8-13.78-13.77,.41-8.56,5.31-13.15,14.7-13.77,2.97,0,5.77,.61,8.42,1.83-.41,1.02-.66,1.99-.76,2.91l-.31,.15c-1.93-2.14-4.43-3.26-7.5-3.37-6.84,.41-10.41,4.54-10.72,12.39,.31,7.85,3.78,11.98,10.41,12.39,2.86,0,5.66-1.07,8.42-3.21h0Zm5.98-1.07h.46c1.53,2.86,3.63,4.24,6.28,4.13,3.37-.2,5.21-2.14,5.51-5.82,0-2.24-1.89-4.08-5.66-5.5-4.39-1.74-6.58-4.18-6.58-7.34,.2-4.69,3.12-7.19,8.73-7.5,2.25,.1,4.08,.71,5.51,1.83-.51,1.12-.87,2.19-1.07,3.22h-.31c-1.02-2.15-2.65-3.26-4.9-3.37-3.17,.31-4.8,1.83-4.9,4.59,0,2.34,1.89,4.28,5.66,5.82,4.39,1.73,6.58,3.98,6.58,6.73-.31,5.61-3.52,8.52-9.65,8.72-2.96-.2-5.05-.87-6.28-1.99,.21-1.02,.41-2.19,.61-3.52Z"/>
    <rect class="cls-2" x="4.05" y="221.16" width="1025.69" height="2.34"/>
  </g>
</svg>